<?xml version="1.0" encoding="UTF-8"?>
<svg width="80" height="80" viewBox="0 0 80 80" fill="none" xmlns="http://www.w3.org/2000/svg">
  <circle cx="40" cy="40" r="39" stroke="white" stroke-width="2"/>
  <!-- Brain outline -->
  <path d="M40 20C30 20 25 25 25 32C25 39 30 41 30 45C30 49 25 51 25 55C25 60 32 60 40 60C48 60 55 60 55 55C55 51 50 49 50 45C50 41 55 39 55 32C55 25 50 20 40 20Z" stroke="white" stroke-width="2"/>
  <!-- Neural connections -->
  <circle cx="33" cy="28" r="2" fill="white"/>
  <circle cx="47" cy="28" r="2" fill="white"/>
  <circle cx="33" cy="52" r="2" fill="white"/>
  <circle cx="47" cy="52" r="2" fill="white"/>
  <circle cx="40" cy="35" r="2" fill="white"/>
  <circle cx="40" cy="45" r="2" fill="white"/>
  <!-- Connection lines -->
  <line x1="33" y1="28" x2="40" y2="35" stroke="white" stroke-width="1"/>
  <line x1="47" y1="28" x2="40" y2="35" stroke="white" stroke-width="1"/>
  <line x1="40" y1="35" x2="40" y2="45" stroke="white" stroke-width="1"/>
  <line x1="40" y1="45" x2="33" y2="52" stroke="white" stroke-width="1"/>
  <line x1="40" y1="45" x2="47" y2="52" stroke="white" stroke-width="1"/>
  <!-- Circuit board pattern -->
  <path d="M20 60L20 68L28 68" stroke="white" stroke-width="1.5"/>
  <path d="M60 60L60 68L52 68" stroke="white" stroke-width="1.5"/>
  <path d="M20 20L20 12L28 12" stroke="white" stroke-width="1.5"/>
  <path d="M60 20L60 12L52 12" stroke="white" stroke-width="1.5"/>
</svg> 